#!OML:ASF F:\VICON\USERDATA\INSTALL\rory3\rory3.ASF
:FULLY-SPECIFIED
:DEGREES
62
root 0.376981 18.1486 -17.5627 -2.74371 -0.851525 -4.84525
lowerback 10.7021 -0.344649 3.60707
upperback -0.608027 0.225587 3.31577
thorax -6.66292 0.0455173 1.42332
lowerneck -12.8616 -2.95752 -2.76228
upperneck 24.072 -3.31153 -0.855079
head 9.78206 -1.88701 -0.234363
rclavicle -6.80837e-015 2.82274e-014
rhumerus -31.122 -18.1988 -76.2732
rradius 22.4717
rwrist 6.13952
rhand -16.0716 17.6448
rfingers 7.12502
rthumb 10.1311 -12.0913
lclavicle -6.80837e-015 2.82274e-014
lhumerus -35.1238 5.63777 83.5235
lradius 25.3835
lwrist 3.54197
lhand -26.2319 22.623
lfingers 7.12502
lthumb 0.321784 52.6025
rfemur -7.73207 6.36884 31.0089
rtibia 29.1749
rfoot -14.5858 -7.11764
rtoes 6.719
lfemur -21.2085 0.349848 -15.037
ltibia 67.5842
lfoot -3.69484 -6.82607
ltoes -9.41678
63
root 0.369944 18.1384 -17.4087 -2.83057 -1.09973 -5.153
lowerback 10.8591 0.0741092 4.41787
upperback -0.217468 0.849648 2.90405
thorax -6.31773 0.323304 0.428674
lowerneck -14.17 -3.29991 -2.08577
upperneck 24.1798 -3.94716 -0.733293
head 10.0615 -2.10096 -0.409947
rclavicle -6.08778e-016 -1.43125e-014
rhumerus -30.2126 -18.5497 -77.2334
rradius 23.2214
rwrist 5.5406
rhand -16.7928 15.1865
rfingers 7.12502
rthumb 9.43529 -14.5823
lclavicle -6.08778e-016 -1.43125e-014
lhumerus -34.3169 4.21472 83.5694
lradius 25.2808
lwrist 3.87126
lhand -26.1729 23.4106
lfingers 7.12502
lthumb 0.378747 53.39
rfemur -7.10426 6.27601 31.4454
rtibia 29.3132
rfoot -15.2782 -7.02703
rtoes 6.18416
lfemur -22.0807 0.365249 -14.6668
ltibia 66.7481
lfoot -4.31765 -6.20574
ltoes -5.51452
64
root 0.367969 18.1337 -17.2492 -2.7553 -1.31337 -5.39074
lowerback 11.0091 0.272735 4.84287
upperback -0.18334 1.16998 2.79681
thorax -6.34846 0.464439 0.025072
lowerneck -14.6101 -3.43473 -1.93408
upperneck 24.1845 -4.19359 -0.619445
head 10.1477 -2.18527 -0.436088
rclavicle -3.85145e-016 6.36111e-015
rhumerus -29.6649 -18.1963 -77.664
rradius 23.824
rwrist 5.17175
rhand -16.901 14.6306
rfingers 7.12502
rthumb 9.33085 -15.1429
lclavicle -3.85145e-016 6.36111e-015
lhumerus -34.2727 4.09832 83.4539
lradius 25.1233
lwrist 3.57185
lhand -25.9358 24.0711
lfingers 7.12502
lthumb 0.607739 54.05
rfemur -6.60041 6.28402 31.7719
rtibia 29.3375
rfoot -15.8167 -7.12294
rtoes 5.99565
lfemur -22.9872 0.383833 -14.3967
ltibia 65.7221
lfoot -5.06919 -5.45695
ltoes -4.16765
65
root 0.365602 18.1159 -17.089 -2.62485 -1.60924 -5.58045
lowerback 11.0172 0.40375 5.07357
upperback -0.19254 1.37543 2.80546
thorax -6.35131 0.557492 -0.128183
lowerneck -14.7213 -3.44167 -1.92596
upperneck 24.0802 -4.19058 -0.659783
head 10.1302 -2.18737 -0.45199
rclavicle -8.90804e-015 -1.11319e-014
rhumerus -29.1748 -17.4748 -78.028
rradius 24.5168
rwrist 4.8655
rhand -17.1085 14.9948
rfingers 7.12502
rthumb 9.13066 -14.7875
lclavicle -8.90804e-015 -1.11319e-014
lhumerus -34.4156 4.64424 83.2253
lradius 24.8615
lwrist 2.89615
lhand -25.7206 23.8157
lfingers 7.12502
lthumb 0.815584 53.7939
rfemur -6.12657 6.49242 32.0685
rtibia 29.2824
rfoot -16.1739 -7.33868
rtoes 6.14749
lfemur -23.8469 0.534955 -14.1887
ltibia 64.5933
lfoot -5.79099 -4.65478
ltoes -5.62142
66
root 0.360686 18.0953 -16.9334 -2.65084 -1.67598 -5.64367
lowerback 11.1914 0.443295 5.13627
upperback -0.109984 1.44416 2.79969
thorax -6.35779 0.589725 -0.182418
lowerneck -15.0751 -3.4057 -2.02892
upperneck 24.0436 -4.13386 -0.541602
head 10.19 -2.15506 -0.392642
rclavicle 7.62836e-015 1.59028e-015
rhumerus -28.4763 -16.5473 -78.5202
rradius 25.0681
rwrist 3.86454
rhand -17.0053 12.3918
rfingers 7.12502
rthumb 9.23022 -17.3862
lclavicle 7.62836e-015 1.59028e-015
lhumerus -34.5322 4.86205 83.1382
lradius 24.7579
lwrist 2.80156
lhand -25.84 23.0431
lfingers 7.12502
lthumb 0.70025 53.0217
rfemur -5.50802 6.44562 32.2318
rtibia 29.261
rfoot -16.7749 -7.42789
rtoes 5.41178
lfemur -24.4782 0.442872 -14.1072
ltibia 63.323
lfoot -6.31011 -3.91083
ltoes -5.90272
67
root 0.359869 18.0785 -16.7817 -2.56605 -1.69406 -5.76746
lowerback 11.4184 0.433475 5.32419
upperback -0.163836 1.4751 2.77955
thorax -6.53752 0.593787 -0.316401
lowerneck -15.3307 -3.32903 -1.91416
upperneck 24.0941 -4.02124 -0.650383
head 10.251 -2.1046 -0.44084
rclavicle 9.80257e-015 7.95139e-016
rhumerus -27.902 -15.65 -78.9862
rradius 25.5318
rwrist 3.22162
rhand -17.1196 9.68826
rfingers 7.12502
rthumb 9.11997 -20.0946
lclavicle 9.80257e-015 7.95139e-016
lhumerus -34.8249 5.20526 82.9538
lradius 24.7943
lwrist 2.71722
lhand -25.8873 23.0148
lfingers 7.12502
lthumb 0.654563 52.9935
rfemur -5.04931 6.23131 32.4003
rtibia 29.2683
rfoot -17.3318 -7.39506
rtoes 4.84668
lfemur -25.1568 0.272645 -13.966
ltibia 61.9016
lfoot -6.66664 -3.24419
ltoes -5.45984
68
root 0.356719 18.0642 -16.628 -2.41978 -1.842 -5.96635
lowerback 11.5063 0.489243 5.52574
upperback -0.274177 1.59222 2.81691
thorax -6.69642 0.639829 -0.410291
lowerneck -15.1809 -3.24548 -1.70214
upperneck 23.9649 -3.89529 -0.904471
head 10.1637 -2.05805 -0.543945
rclavicle 3.11843e-015 -2.38542e-015
rhumerus -27.5193 -14.6301 -79.3229
rradius 26.0308
rwrist 2.50241
rhand -17.3107 8.98918
rfingers 7.12502
rthumb 8.93552 -20.8016
lclavicle 3.11843e-015 -2.38542e-015
lhumerus -35.1567 5.53488 82.825
lradius 24.6963
lwrist 2.56919
lhand -25.904 23.8617
lfingers 7.12502
lthumb 0.63844 53.8404
rfemur -4.59839 6.26321 32.6767
rtibia 29.1464
rfoot -17.6709 -7.44626
rtoes 4.93264
lfemur -25.8718 0.201087 -13.7098
ltibia 60.2517
lfoot -6.88658 -2.5503
ltoes -4.81113
69
root 0.356829 18.0506 -16.4638 -2.25461 -2.12048 -6.08019
lowerback 11.3973 0.63595 5.71875
upperback -0.34578 1.80505 2.76681
thorax -6.6943 0.735306 -0.605159
lowerneck -14.9185 -3.24709 -1.60763
upperneck 23.7288 -3.91975 -0.929462
head 10.0257 -2.06453 -0.562944
rclavicle 8.58501e-015 1.31198e-014
rhumerus -27.2606 -13.8659 -79.6176
rradius 26.6051
rwrist 1.80871
rhand -18.0106 12.2744
rfingers 7.12502
rthumb 8.26012 -17.5441
lclavicle 8.58501e-015 1.31198e-014
lhumerus -35.3651 5.79183 82.6133
lradius 24.3551
lwrist 2.29112
lhand -26.1543 23.866
lfingers 7.12502
lthumb 0.396715 53.8454
rfemur -4.00887 6.26016 32.8285
rtibia 28.8823
rfoot -18.0704 -7.29991
rtoes 3.98216
lfemur -26.4599 0.289869 -13.5582
ltibia 58.4091
lfoot -7.16837 -1.83258
ltoes -3.75562
70
root 0.357718 18.0537 -16.2954 -2.08646 -2.37681 -6.07606
lowerback 11.2399 0.82512 5.86628
upperback -0.329256 2.0524 2.62734
thorax -6.56457 0.852189 -0.87244
lowerneck -14.9013 -3.36026 -1.61699
upperneck 23.6075 -4.0995 -0.835762
head 9.98179 -2.13727 -0.549776
rclavicle 1.74558e-014 6.75868e-015
rhumerus -26.7756 -13.5482 -79.8696
rradius 27.0073
rwrist 1.5012
rhand -19.0952 19.0808
rfingers 7.12502
rthumb 7.21325 -10.7762
lclavicle 1.74558e-014 6.75868e-015
lhumerus -35.5579 5.64866 82.5139
lradius 24.3505
lwrist 2.45054
lhand -26.0606 22.9898
lfingers 7.12502
lthumb 0.487205 52.969
rfemur -3.3367 6.29821 32.8484
rtibia 28.5244
rfoot -18.4755 -7.27326
rtoes 2.74508
lfemur -26.8474 0.289775 -13.535
ltibia 56.3593
lfoot -7.41024 -1.12699
ltoes -3.2791
71
root 0.35865 18.0504 -16.1399 -1.8442 -2.58988 -6.33231
lowerback 11.0275 0.914228 6.17767
upperback -0.257572 2.19054 2.65394
thorax -6.35062 0.916814 -1.03509
lowerneck -14.8732 -3.38049 -1.62883
upperneck 23.2729 -4.1216 -0.839054
head 9.85723 -2.14928 -0.546298
rclavicle 2.57178e-015 -1.19271e-014
rhumerus -26.0449 -12.9293 -80.1207
rradius 27.3883
rwrist 1.07367
rhand -19.2772 22.2872
rfingers 7.12502
rthumb 7.03754 -7.57577
lclavicle 2.57178e-015 -1.19271e-014
lhumerus -35.6134 6.0796 82.3337
lradius 24.2388
lwrist 2.66745
lhand -25.8543 22.2235
lfingers 7.12502
lthumb 0.686512 52.2021
rfemur -2.77903 6.52084 33.1786
rtibia 28.1158
rfoot -18.584 -7.43525
rtoes 2.17743
lfemur -27.3317 0.167358 -13.1738
ltibia 54.2428
lfoot -7.54347 -0.501812
ltoes -3.59996
72
root 0.358862 18.0445 -15.9855 -1.59886 -2.58625 -6.40053
lowerback 10.9105 0.941992 6.34847
upperback -0.36051 2.24084 2.58028
thorax -6.38208 0.932099 -1.21376
lowerneck -14.6148 -3.3323 -1.46597
upperneck 22.9454 -4.08873 -0.87702
head 9.6868 -2.12544 -0.572172
rclavicle 6.93262e-015 -6.36111e-015
rhumerus -25.6584 -12.4786 -80.3369
rradius 27.8092
rwrist 0.796133
rhand -19.2437 22.1682
rfingers 7.12502
rthumb 7.06995 -7.69369
lclavicle 6.93262e-015 -6.36111e-015
lhumerus -35.9966 6.5154 81.9798
lradius 24.1267
lwrist 2.71143
lhand -25.7218 22.4128
lfingers 7.12502
lthumb 0.814416 52.391
rfemur -2.28557 6.49153 33.2697
rtibia 27.7327
rfoot -18.7342 -7.44194
rtoes 2.65541
lfemur -27.848 -0.146398 -13.0345
ltibia 52.0448
lfoot -7.55432 0.168992
ltoes -4.65294
73
root 0.358793 18.0364 -15.8227 -1.53539 -2.60325 -6.34328
lowerback 10.9593 1.04409 6.46177
upperback -0.324417 2.38111 2.39817
thorax -6.34948 0.995429 -1.49164
lowerneck -15.1212 -3.31642 -1.25874
upperneck 23.1504 -4.13602 -0.779349
head 9.85229 -2.11557 -0.591946
rclavicle -9.56651e-015 -3.51849e-014
rhumerus -25.0454 -12.451 -80.571
rradius 28.1347
rwrist 0.621242
rhand -19.2901 22.0441
rfingers 7.12502
rthumb 7.02509 -7.81929
lclavicle -9.56651e-015 -3.51849e-014
lhumerus -36.089 6.45332 81.8109
lradius 24.1217
lwrist 2.85178
lhand -25.6607 22.8493
lfingers 7.12502
lthumb 0.873447 52.8273
rfemur -1.59366 6.33594 33.2222
rtibia 27.3857
rfoot -18.9523 -7.41246
rtoes 2.89916
lfemur -28.0483 -0.337214 -13.0543
ltibia 49.8666
lfoot -7.69796 0.666549
ltoes -5.72704
74
root 0.357178 18.0203 -15.6644 -1.47985 -2.82392 -6.29543
lowerback 11.1079 1.21189 6.44656
upperback -0.256058 2.6036 2.28929
thorax -6.33995 1.10423 -1.63623
lowerneck -15.6339 -3.32574 -1.16823
upperneck 23.3221 -4.18764 -0.693491
head 10.0107 -2.11856 -0.596678
rclavicle -1.67476e-014 -1.98785e-014
rhumerus -24.3887 -12.2396 -80.7211
rradius 28.5135
rwrist 0.327551
rhand -19.1451 21.9459
rfingers 7.12502
rthumb 7.16507 -7.91281
lclavicle -1.67476e-014 -1.98785e-014
lhumerus -36.0428 6.38271 81.788
lradius 24.194
lwrist 3.06146
lhand -25.7973 22.818
lfingers 7.12502
lthumb 0.741565 52.7964
rfemur -0.935169 6.46071 33.2359
rtibia 27.1129
rfoot -18.929 -7.53326
rtoes 2.64283
lfemur -28.0932 -0.380018 -13.0219
ltibia 47.5789
lfoot -7.69392 1.14835
ltoes -5.8929
